HIERARCHY
ROOT Hips
{
	OFFSET -0.001795 -0.223333 0.028219
	CHANNELS 6 Xposition Yposition Zposition Zrotation Yrotation Xrotation 
	JOINT LeftUpLeg
	{
		OFFSET 0.069520 -0.091406 -0.006815
		CHANNELS 3 Zrotation Yrotation Xrotation
		JOINT LeftLeg
		{
			OFFSET 0.034277 -0.375199 -0.004496
			CHANNELS 3 Zrotation Yrotation Xrotation
			JOINT LeftFoot
			{
				OFFSET -0.013596 -0.397961 -0.043693
				CHANNELS 3 Zrotation Yrotation Xrotation
				JOINT LeftToe
				{
					OFFSET 0.026358 -0.055791 0.119288
					CHANNELS 3 Zrotation Yrotation Xrotation
					End Site
					{
						OFFSET 0.000000 0.000000 0.000000
					}
				}
			}
		}
	}
	JOINT RightUpLeg
	{
		OFFSET -0.067670 -0.090522 -0.004320
		CHANNELS 3 Zrotation Yrotation Xrotation
		JOINT RightLeg
		{
			OFFSET -0.038290 -0.382569 -0.008850
			CHANNELS 3 Zrotation Yrotation Xrotation
			JOINT RightFoot
			{
				OFFSET 0.015774 -0.398415 -0.042312
				CHANNELS 3 Zrotation Yrotation Xrotation
				JOINT RightToe
				{
					OFFSET -0.025372 -0.048144 0.123348
					CHANNELS 3 Zrotation Yrotation Xrotation
					End Site
					{
						OFFSET 0.000000 0.000000 0.000000
					}
				}
			}
		}
	}
	JOINT Spine
	{
		OFFSET -0.002533 0.108963 -0.026696
		CHANNELS 3 Zrotation Yrotation Xrotation
		JOINT Spine1
		{
			OFFSET 0.005487 0.135180 0.001092
			CHANNELS 3 Zrotation Yrotation Xrotation
			JOINT Spine2
			{
				OFFSET 0.001457 0.052922 0.025425
				CHANNELS 3 Zrotation Yrotation Xrotation
				JOINT Neck
				{
					OFFSET -0.002778 0.213870 -0.042857
					CHANNELS 3 Zrotation Yrotation Xrotation
					JOINT Head
					{
						OFFSET 0.005152 0.064970 0.051349
						CHANNELS 3 Zrotation Yrotation Xrotation
						End Site
						{
							OFFSET 0.000000 0.000000 0.000000
						}
					}
				}
				JOINT LeftShoulder
				{
					OFFSET 0.078845 0.121749 -0.034090
					CHANNELS 3 Zrotation Yrotation Xrotation
					JOINT LeftArm
					{
						OFFSET 0.090977 0.030469 -0.008868
						CHANNELS 3 Zrotation Yrotation Xrotation
						JOINT LeftForeArm
						{
							OFFSET 0.259612 -0.012772 -0.027456
							CHANNELS 3 Zrotation Yrotation Xrotation
							JOINT LeftHand
							{
								OFFSET 0.249234 0.008986 -0.001171
								CHANNELS 3 Zrotation Yrotation Xrotation
								End Site
								{
									OFFSET 0.000000 0.000000 0.000000
								}
							}
						}
					}
				}
				JOINT RightShoulder
				{
					OFFSET -0.081759 0.118833 -0.038615
					CHANNELS 3 Zrotation Yrotation Xrotation
					JOINT RightArm
					{
						OFFSET -0.096012 0.032551 -0.009143
						CHANNELS 3 Zrotation Yrotation Xrotation
						JOINT RightForeArm
						{
							OFFSET -0.253742 -0.013329 -0.021401
							CHANNELS 3 Zrotation Yrotation Xrotation
							JOINT RightHand
							{
								OFFSET -0.255298 0.007772 -0.005559
								CHANNELS 3 Zrotation Yrotation Xrotation
								End Site
								{
									OFFSET 0.000000 0.000000 0.000000
								}
							}
						}
					}
				}
			}
		}
	}
}
MOTION
Frames: 13
Frame Time: 0.050000
-0.052281 0.870744 -0.123881 -7.622158 7.525756 18.664471 29.001178 1.827683 -26.651374 -5.740434 0.715016 14.580077 8.864262 19.416216 10.026916 0.000000 0.000000 0.000000 -2.518128 2.331724 -38.180217 6.438427 -1.727991 26.387449 -5.204513 -13.144780 -1.720810 0.000000 0.000000 0.000000 -9.329382 1.224789 35.148913 -10.951880 2.990603 -23.753718 -11.127451 -15.349664 28.835900 -5.905128 3.117525 -38.566919 0.000000 0.000000 0.000000 14.185898 -25.348676 5.569177 13.292285 -52.460479 -7.002722 79.592997 -5.939525 -1.055817 0.000000 0.000000 0.000000 19.616885 14.104761 3.173917 55.168986 15.259317 -0.102637 41.190640 59.738965 24.854407 0.000000 0.000000 0.000000 
-0.051199 0.875097 -0.125309 -7.579518 7.464023 18.775688 28.844452 1.912852 -27.341416 -6.337004 0.856162 14.889115 9.367884 20.271183 11.452288 0.000000 0.000000 0.000000 -1.564524 2.597737 -37.743843 5.304817 -1.260547 25.284287 -5.022233 -12.779614 -0.810246 0.000000 0.000000 0.000000 -9.835666 1.423964 35.411952 -10.457580 2.895742 -23.737895 -11.305025 -15.075288 28.468254 -6.491415 3.393802 -37.360170 0.000000 0.000000 0.000000 13.495397 -25.147892 5.760750 12.588853 -52.663286 -6.865948 78.827413 -7.806434 -2.485564 0.000000 0.000000 0.000000 19.714829 13.558927 2.941833 54.740402 14.509432 -0.397123 43.978096 60.214114 26.851926 0.000000 0.000000 0.000000 
-0.049719 0.877595 -0.126492 -7.599243 7.278564 18.830452 28.363902 1.956821 -27.965377 -6.332115 0.875334 15.750251 9.480000 20.446490 11.370585 0.000000 0.000000 0.000000 -1.381103 2.664771 -37.494850 4.658342 -0.995375 24.549485 -5.369934 -13.799296 0.439744 0.000000 0.000000 0.000000 -10.432386 1.669394 35.305879 -10.196958 2.859101 -23.485531 -11.246456 -15.267685 28.340227 -7.288694 3.706291 -36.761528 0.000000 0.000000 0.000000 12.376452 -25.067606 6.075869 10.680855 -52.824619 -6.180494 78.579347 -9.529120 -3.654632 0.000000 0.000000 0.000000 19.129758 13.829268 3.063834 54.587902 14.540487 -0.393844 45.072067 61.161424 27.955506 0.000000 0.000000 0.000000 
-0.047839 0.881406 -0.127764 -7.896151 6.639367 18.746173 28.423018 2.217339 -28.770541 -6.851423 1.046132 16.600536 9.875716 21.023312 12.399824 0.000000 0.000000 0.000000 -1.178829 2.770243 -36.794593 5.164882 -1.070584 23.127186 -5.891459 -15.221541 2.054012 0.000000 0.000000 0.000000 -11.053757 1.978415 35.400745 -9.855434 2.781460 -23.631349 -11.019137 -15.096999 28.299703 -7.707702 3.885876 -36.382627 0.000000 0.000000 0.000000 11.500244 -24.617532 6.212390 8.806255 -52.682475 -5.455218 78.304676 -11.455800 -4.989662 0.000000 0.000000 0.000000 17.947027 13.437243 2.915675 55.168876 14.535582 -0.480949 48.606574 61.498487 30.361477 0.000000 0.000000 0.000000 
-0.045943 0.884300 -0.128970 -8.825235 6.496170 18.463802 28.881874 2.425271 -29.177746 -6.293885 0.936640 17.383496 9.830846 20.940334 12.625151 0.000000 0.000000 0.000000 -0.453357 2.952790 -35.968405 5.895795 -1.251120 22.039643 -5.894520 -15.295260 3.096000 0.000000 0.000000 0.000000 -11.347708 2.079980 35.106280 -9.200155 2.677981 -23.183784 -10.641805 -14.684894 28.111602 -7.802910 3.979996 -35.667945 0.000000 0.000000 0.000000 11.014041 -24.164766 6.231585 6.761611 -51.969668 -4.664729 76.950072 -12.433708 -5.592999 0.000000 0.000000 0.000000 16.553815 13.385350 3.108323 55.894931 16.069340 0.101983 46.037631 61.600369 28.888691 0.000000 0.000000 0.000000 
-0.043890 0.887055 -0.130255 -9.915244 6.138328 17.631034 29.482105 2.682818 -29.296760 -6.619109 1.053480 18.167380 9.698862 20.695418 11.985661 0.000000 0.000000 0.000000 -0.084411 3.033065 -34.869150 6.964890 -1.505682 20.738634 -5.734382 -15.018446 4.462396 0.000000 0.000000 0.000000 -11.739788 2.223908 35.242072 -8.316873 2.521089 -22.779893 -10.118716 -13.519344 28.024612 -7.871359 4.152955 -34.352512 0.000000 0.000000 0.000000 10.977359 -23.802975 6.135246 4.657414 -51.177426 -3.958786 75.030227 -13.826373 -6.556242 0.000000 0.000000 0.000000 16.492670 13.371830 3.383520 55.471708 17.417480 0.670209 43.961749 61.872667 28.039051 0.000000 0.000000 0.000000 
-0.041710 0.889345 -0.131524 -10.995456 5.703787 17.555906 29.983039 3.015707 -29.979428 -6.666032 1.131894 19.648948 9.564234 20.452912 11.503457 0.000000 0.000000 0.000000 0.054584 3.114275 -34.567390 7.569201 -1.598527 19.585007 -5.938576 -15.635770 6.596581 0.000000 0.000000 0.000000 -11.936334 2.341450 35.203604 -7.749844 2.395056 -22.756805 -9.636872 -12.944581 27.911908 -8.152126 4.325390 -34.089725 0.000000 0.000000 0.000000 10.943390 -23.634766 6.116231 3.365022 -50.266016 -3.469159 73.419993 -14.285172 -6.714524 0.000000 0.000000 0.000000 16.167030 13.544319 3.586730 55.682045 18.596432 1.196116 40.557709 62.044353 26.080543 0.000000 0.000000 0.000000 
-0.039798 0.891515 -0.132799 -11.980334 4.867805 17.156108 30.573465 3.452769 -30.526352 -6.910166 1.302367 21.416329 9.683397 20.565089 11.284164 0.000000 0.000000 0.000000 0.305531 3.157576 -33.099882 8.446043 -1.693089 17.528921 -5.812724 -15.511883 7.706534 0.000000 0.000000 0.000000 -12.469129 2.622964 35.175652 -7.515067 2.330300 -22.843832 -8.948966 -12.057293 27.937506 -8.117756 4.384819 -33.381825 0.000000 0.000000 0.000000 10.305821 -23.523660 6.253088 2.551177 -49.224828 -3.247100 71.667862 -14.779365 -6.964615 0.000000 0.000000 0.000000 16.998698 13.377171 3.596225 54.287566 18.764158 1.214036 41.878089 61.918829 27.005013 0.000000 0.000000 0.000000 
-0.038161 0.891800 -0.134004 -12.763581 4.047016 16.848316 31.091911 3.821706 -30.727913 -6.796792 1.376765 23.149513 9.672290 20.468972 10.970889 0.000000 0.000000 0.000000 0.570904 3.209261 -32.019944 9.056273 -1.724328 15.964215 -5.811057 -15.648540 8.663390 0.000000 0.000000 0.000000 -12.730909 2.814557 35.326473 -7.393824 2.292287 -22.847310 -8.681703 -11.917741 27.758396 -8.306984 4.466169 -32.349532 0.000000 0.000000 0.000000 9.683887 -23.058960 6.280845 0.636661 -47.703498 -2.510604 70.368598 -14.293014 -6.389535 0.000000 0.000000 0.000000 17.311569 13.316036 3.467701 53.109702 18.787390 1.204173 45.053314 61.619265 28.753310 0.000000 0.000000 0.000000 
-0.036799 0.891631 -0.135341 -13.474009 2.842641 16.830914 31.463716 4.360129 -31.482048 -7.304893 1.695074 24.829307 9.750239 20.505039 10.074651 0.000000 0.000000 0.000000 0.803561 3.342899 -31.693631 9.584310 -1.744040 15.160155 -5.614359 -15.408912 8.930689 0.000000 0.000000 0.000000 -13.196607 3.117658 34.809369 -7.538982 2.300808 -23.016619 -8.311826 -11.547626 27.993497 -8.238601 4.434261 -31.322759 0.000000 0.000000 0.000000 9.187265 -22.759580 6.308814 -0.387113 -45.765020 -2.133827 67.720164 -14.608591 -6.268693 0.000000 0.000000 0.000000 18.126038 12.958911 3.170900 51.088911 18.629448 1.054095 48.947652 60.988199 30.804886 0.000000 0.000000 0.000000 
-0.035150 0.892631 -0.136748 -14.075232 2.238569 16.965628 31.585646 4.711082 -32.229471 -7.664534 1.947994 26.446871 9.498452 20.056676 8.994919 0.000000 0.000000 0.000000 0.765268 3.411009 -31.824330 9.621905 -1.707936 14.983984 -5.734077 -15.791838 9.743988 0.000000 0.000000 0.000000 -13.110205 3.182404 35.016769 -7.800121 2.341415 -23.123472 -8.203334 -11.631279 28.037556 -8.531131 4.516238 -31.440029 0.000000 0.000000 0.000000 9.537760 -22.431734 6.118973 -1.080728 -44.797125 -1.827527 64.787880 -13.634925 -5.270491 0.000000 0.000000 0.000000 18.467127 12.512204 2.773263 50.104291 18.580034 1.019232 52.049234 61.009298 32.693238 0.000000 0.000000 0.000000 
-0.033599 0.894232 -0.138074 -14.710935 1.425716 17.136414 31.552970 5.082133 -32.962450 -7.673328 2.104519 27.927799 8.868147 18.930867 7.939285 0.000000 0.000000 0.000000 0.755025 3.482633 -31.766713 9.626667 -1.638291 14.488834 -5.407492 -15.325642 10.485939 0.000000 0.000000 0.000000 -12.951697 3.223533 34.830420 -8.097806 2.395337 -23.057057 -8.051661 -11.484497 27.978347 -8.319210 4.385107 -30.944660 0.000000 0.000000 0.000000 9.250647 -22.157415 6.117956 -1.479778 -43.958440 -1.684305 61.839970 -12.515624 -4.323354 0.000000 0.000000 0.000000 19.162611 12.090009 2.385681 49.075380 18.478147 0.988147 55.420744 60.814710 34.695957 0.000000 0.000000 0.000000 
-0.032302 0.894582 -0.139415 -15.161730 0.805358 17.112251 31.715755 5.299012 -32.940522 -7.588949 2.133880 28.020296 8.744435 18.661571 7.638400 0.000000 0.000000 0.000000 1.230747 3.609387 -31.448174 9.763576 -1.620166 14.192269 -5.543525 -15.652504 10.335436 0.000000 0.000000 0.000000 -12.842672 3.289214 35.247635 -8.378720 2.411229 -23.755913 -8.086436 -11.838032 27.928477 -8.897789 4.593792 -30.615103 0.000000 0.000000 0.000000 8.963582 -22.017933 6.152247 -1.899391 -42.343650 -1.490601 59.985440 -11.876114 -3.729824 0.000000 0.000000 0.000000 20.333979 12.250665 2.136103 48.034317 18.003038 0.895251 58.423300 61.157899 36.738167 0.000000 0.000000 0.000000 
